<?xml version="1.0" encoding="utf-8"?>
<!-- Generator: Adobe Illustrator 22.0.1, SVG Export Plug-In . SVG Version: 6.00 Build 0)  -->
<svg version="1.1" id="Layer_1" xmlns="http://www.w3.org/2000/svg" xmlns:xlink="http://www.w3.org/1999/xlink" x="0px" y="0px"
	 viewBox="0 0 960 310" style="enable-background:new 0 0 960 310;" xml:space="preserve">
<style type="text/css">
	.st0{fill:#DCE4E7;}
	.st1{fill:#B0BEC5;}
	.st2{fill:#D0D8DC;}
	.st3{fill:#37474F;}
	.st4{fill:#FFFFFF;}
	.st5{fill:#ACD5F4;}
	.st6{fill:#EFFAFF;}
	.st7{fill:#74B2E8;}
	.st8{fill:#71BE71;}
	.st9{fill:#FBB040;}
	.st10{fill:#E83F57;}
	.st11{fill:#86BBD8;}
	.st12{fill:#D0DEE6;}
	.st13{opacity:0.1;enable-background:new    ;}
	.st14{fill:#0062A1;}
	.st15{fill:none;stroke:#74B2E8;stroke-width:2;stroke-miterlimit:10;}
	.st16{fill:#5F96CE;}
	.st17{fill:#054E86;}
	.st18{fill:#98C5D8;}
	.st19{fill:#034A6D;}
	.st20{fill:#E9D6B8;}
	.st21{fill:#4C9E4C;}
	.st22{fill:#F9AE7D;}
	.st23{fill:#194866;}
	.st24{fill:#0C84C6;}
	.st25{fill:#ED975D;}
	.st26{opacity:0.2;fill:#EFF7F9;enable-background:new    ;}
	.st27{fill:#ECEFF0;}
	.st28{opacity:0.2;fill:#CBEBF9;enable-background:new    ;}
	.st29{fill:#FEFFFF;}
	.st30{fill:#4B5E66;}
	.st31{fill:#CBEAFB;}
	.st32{fill:none;stroke:#74B2E8;stroke-width:4;stroke-miterlimit:10;}
	.st33{fill:#428AB2;}
	.st34{fill:#E1EEFE;}
	.st35{fill:#D1DBEA;}
	.st36{fill:#B0BFDE;}
</style>
<g>
	<g>
		<polygon class="st0" points="221.4,300.4 123,300.4 127.8,270.6 216.6,270.6 		"/>
		<polygon class="st1" points="199.7,270.6 127.8,270.6 123,300.4 168.7,300.4 		"/>
		<path class="st2" d="M235.9,310H108.6v-1.4c0-4.6,3.6-8.2,8.2-8.2h111c4.6,0,8.2,3.6,8.2,8.2L235.9,310L235.9,310z"/>
		<path class="st3" d="M334.2,273.4H10.3c-5,0-9.1-4.1-9.1-9.1V32.5c0-5,4.1-9.1,9.1-9.1h323.7c5,0,9.1,4.1,9.1,9.1v231.7
			C343.4,269.3,339.3,273.4,334.2,273.4z"/>
		<rect x="15.3" y="37.1" class="st4" width="313.7" height="189.1"/>
		<path class="st2" d="M334.2,273.4H10.3c-5,0-9.1-4.1-9.1-9.1V240h342.1v24.3C343.4,269.3,339.3,273.4,334.2,273.4z"/>
	</g>
	<g>
		<g>
			<rect x="14.4" y="59" class="st4" width="315.8" height="167.1"/>
			<g>
				<rect x="21.4" y="83" class="st5" width="152.9" height="91.7"/>
			</g>
			<g>
				<rect x="21.4" y="175.4" class="st6" width="152.9" height="44.9"/>
			</g>
			<g>
				<rect x="177.4" y="83" class="st7" width="147" height="43.1"/>
			</g>
			<path class="st5" d="M327.1,36.1H17.6c-1.7,0-3.2,1.5-3.2,3.2v19.9h315.8V39.3C330.3,37.6,328.9,36.1,327.1,36.1z"/>
			<g>
				<path class="st8" d="M21.1,42.3c0,1.2-0.8,2-1.9,2c-1.1,0-1.9-0.9-1.9-2c0-1.1,0.8-2,1.9-2C20.3,40.3,21.1,41.2,21.1,42.3z"/>
				<path class="st9" d="M26.7,42.3c0,1.2-0.8,2-1.9,2c-1.1,0-1.9-0.9-1.9-2c0-1.1,0.8-2,1.9-2S26.7,41.2,26.7,42.3z"/>
				<path class="st10" d="M32.4,42.3c0,1.2-0.8,2-1.9,2c-1.1,0-1.9-0.9-1.9-2c0-1.1,0.8-2,1.9-2C31.5,40.3,32.4,41.2,32.4,42.3z"/>
			</g>
			<rect x="40.4" y="47.3" class="st4" width="246.8" height="8.9"/>
			<g>
				<g>
					<polygon class="st11" points="19.9,54.5 16.8,51.2 19.9,48.1 21,49.3 19.1,51.2 21,53.2 					"/>
				</g>
				<g>
					<rect x="18.7" y="50.4" class="st11" width="5.5" height="1.7"/>
				</g>
			</g>
			<g>
				<g>
					<polygon class="st11" points="32.6,54.5 31.5,53.2 33.5,51.2 31.5,49.3 32.6,48.1 35.6,51.2 					"/>
				</g>
				<g>
					<rect x="28.3" y="50.4" class="st11" width="5.5" height="1.7"/>
				</g>
			</g>
			<rect x="290.6" y="47.3" class="st7" width="24.2" height="8"/>
			<g>
				<g>
					<rect x="53.2" y="69.4" class="st5" width="24.5" height="2.8"/>
				</g>
				<g>
					<rect x="81.3" y="69.4" class="st5" width="24.5" height="2.8"/>
				</g>
				<g>
					<rect x="109.4" y="69.4" class="st5" width="24.5" height="2.8"/>
				</g>
				<g>
					<rect x="137.6" y="69.4" class="st5" width="24.5" height="2.8"/>
				</g>
				<g>
					<rect x="165.7" y="69.4" class="st5" width="24.5" height="2.8"/>
				</g>
				<g>
					<rect x="283.5" y="64.6" class="st5" width="39.6" height="2.1"/>
				</g>
				<g>
					<rect x="291.9" y="69.7" class="st5" width="31.2" height="2.1"/>
				</g>
				<g>
					<rect x="21.4" y="67" class="st7" width="26" height="7.6"/>
				</g>
			</g>
			<g>
				<g>
					<g>
						<rect x="28.5" y="181.7" class="st7" width="55.4" height="2.9"/>
					</g>
					<g>
						<rect x="28.5" y="188" class="st5" width="134.2" height="2.2"/>
					</g>
					<g>
						<rect x="28" y="193.2" class="st5" width="117.2" height="2.2"/>
					</g>
					<g>
						<rect x="27.6" y="201.9" class="st7" width="27" height="7.9"/>
					</g>
					<g>
						<rect x="33.6" y="204.7" class="st4" width="14.7" height="2.2"/>
					</g>
				</g>
			</g>
			<g>
				<g>
					<rect x="183.3" y="91.7" class="st4" width="56.4" height="2.9"/>
				</g>
				<g>
					<rect x="183.3" y="98" class="st5" width="135.3" height="2.2"/>
				</g>
				<g>
					<rect x="183.3" y="103.2" class="st5" width="117.7" height="2.2"/>
				</g>
				<g>
					<rect x="183.3" y="111.9" class="st4" width="27" height="7.9"/>
				</g>
				<g>
					<rect x="189.4" y="114.7" class="st12" width="14.7" height="2.2"/>
				</g>
			</g>
			<g>
				<rect x="177.3" y="175.4" class="st6" width="72" height="44.9"/>
			</g>
			<g>
				<g>
					<rect x="184.1" y="181.7" class="st7" width="41.3" height="2.9"/>
				</g>
				<g>
					<rect x="184.1" y="188" class="st5" width="47.1" height="2.2"/>
				</g>
				<g>
					<rect x="183.8" y="193.2" class="st5" width="41.1" height="2.2"/>
				</g>
				<g>
					<rect x="183.3" y="201.9" class="st7" width="27" height="7.9"/>
				</g>
				<g>
					<rect x="189.4" y="204.7" class="st4" width="14.7" height="2.2"/>
				</g>
			</g>
			<g>
				<rect x="177.3" y="129.9" class="st7" width="72" height="44.9"/>
			</g>
			<g>
				<g>
					<rect x="252.5" y="175.4" class="st6" width="72" height="44.9"/>
				</g>
				<g>
					<g>
						<rect x="259.4" y="181.7" class="st7" width="41.3" height="2.9"/>
					</g>
					<g>
						<rect x="259.4" y="188" class="st5" width="47.1" height="2.2"/>
					</g>
					<g>
						<rect x="259.1" y="193.2" class="st5" width="41.1" height="2.2"/>
					</g>
					<g>
						<rect x="258.7" y="201.9" class="st7" width="27" height="7.9"/>
					</g>
					<g>
						<rect x="264.8" y="204.7" class="st4" width="14.7" height="2.2"/>
					</g>
				</g>
				<g>
					<rect x="252.5" y="129.9" class="st7" width="72" height="44.9"/>
				</g>
			</g>
		</g>
		<g>
			<path class="st9" d="M203,142.8v20.8h24.5v-20.8H203z M225.8,161.8h-21.1v-17.1h21.1V161.8z"/>
			<path class="st9" d="M213.2,148.8c0,1.2-0.9,2.1-2,2.1c-1.1,0-2-1-2-2.1c0-1.2,0.9-2.1,2-2.1
				C212.3,146.7,213.2,147.7,213.2,148.8z"/>
			<polygon class="st9" points="224.7,153.8 220,149.7 213.6,155.4 209,153.4 205.8,155 205.8,160.6 224.7,160.6 			"/>
		</g>
		<g>
			<path class="st5" d="M278.2,142.8v20.8h24.4v-20.8H278.2z M300.9,161.8h-21.1v-17.1h21.1V161.8z"/>
			<path class="st5" d="M288.4,148.8c0,1.2-0.9,2.1-2,2.1c-1.1,0-2-1-2-2.1c0-1.2,0.9-2.1,2-2.1
				C287.5,146.7,288.4,147.7,288.4,148.8z"/>
			<polygon class="st5" points="299.9,153.8 295.1,149.7 288.7,155.4 284.1,153.4 280.9,155 280.9,160.6 299.9,160.6 			"/>
		</g>
		<g>
			<path class="st4" d="M108.1,131.8v-2.3c0-0.7-0.5-1.3-1.2-1.3H89.6c-0.6,0-1.2,0.6-1.2,1.3v5v6.7c0,0.7,0.5,1.3,1.2,1.3h17.2
				c0.6,0,1.2-0.6,1.2-1.3v-2.3l6.4,3.5v-5.3v-0.9v-0.9v-7L108.1,131.8z"/>
			<path class="st4" d="M93.2,127.8c2.3,0,4.1-1.9,4.1-4.4s-1.8-4.4-4.1-4.4c-2.3,0-4.1,1.9-4.1,4.4C89,125.7,90.9,127.8,93.2,127.8
				z"/>
			<path class="st4" d="M102,127.8c2.3,0,4.1-1.9,4.1-4.4s-1.8-4.4-4.1-4.4s-4.1,1.9-4.1,4.4C97.9,125.7,99.7,127.8,102,127.8z"/>
		</g>
	</g>
</g>
<g>
	<g>
		<path class="st13" d="M808.6,301l-40.6-6.9c-154.9-26.4-313.2-26.4-468.1,0l-40.6,6.9c-3.8,0.6-7.2-2.3-7.2-6.1V7.7
			c0-3.8,3.4-6.7,7.2-6.1l57,9c144.3,22.9,291.2,22.9,435.5,0l57-9c3.8-0.6,7.2,2.3,7.2,6.1v287.2
			C815.9,298.7,812.4,301.6,808.6,301z"/>
		<path class="st6" d="M810.1,299.5l-40.6-6.9c-154.9-26.4-313.2-26.4-468.1,0l-40.6,6.9c-3.8,0.6-7.2-2.3-7.2-6.1V6.2
			c0-3.8,3.4-6.7,7.2-6.1l57,9C462.1,32,609,32,753.3,9.1l57-9c3.8-0.6,7.2,2.3,7.2,6.1v287.2C817.4,297.2,813.9,300.1,810.1,299.5z
			"/>
		<g>
			<polygon class="st14" points="280.8,25.3 270.3,22.7 270.3,12.2 280.8,14.8 			"/>
			<polygon class="st14" points="280.8,46.6 270.3,45.1 270.3,34.5 280.8,36.1 			"/>
			<rect x="270.3" y="100.9" class="st14" width="10.5" height="10.5"/>
			<rect x="270.3" y="122.1" class="st14" width="10.5" height="10.5"/>
			<rect x="270.3" y="188.2" class="st14" width="10.5" height="10.5"/>
			<polygon class="st14" points="280.8,220 270.3,220.7 270.3,210.2 280.8,209.5 			"/>
			<polygon class="st14" points="280.8,241.9 270.3,242.6 270.3,232.1 280.8,231.4 			"/>
			<polygon class="st14" points="280.8,263.6 270.3,264.6 270.3,254.1 280.8,253.1 			"/>
			<polygon class="st14" points="280.8,285.2 270.3,286.6 270.3,276.1 280.8,274.7 			"/>
			<polygon class="st9" points="334.9,277.5 292.6,283 292.6,272.4 334.9,266.9 			"/>
			<polygon class="st9" points="334.9,256.8 292.6,261.3 292.6,250.8 334.9,246.3 			"/>
			<polygon class="st7" points="358,235.1 331.5,236.8 331.5,226.2 358,224.5 			"/>
			<polygon class="st7" points="395,233.2 368.3,233.9 368.3,223.4 395,222.8 			"/>
			<polygon class="st7" points="374.3,214.7 331.7,216 331.7,205.5 374.3,204.1 			"/>
			<rect x="407.5" y="181.8" class="st9" width="42.7" height="10.5"/>
			<rect x="424.4" y="199.7" class="st7" width="42.7" height="10.5"/>
			<polygon class="st7" points="381.6,194.6 331.7,195.6 331.7,185.1 381.6,184.1 			"/>
			<polygon class="st5" points="518.8,192 468.7,192.3 468.7,181.8 518.8,181.4 			"/>
			<rect x="488.1" y="199.7" class="st5" width="41.8" height="10.5"/>
			<rect x="540" y="217.8" class="st7" width="41.8" height="10.5"/>
			<polygon class="st7" points="529.8,228.3 479.6,229 479.6,218.6 529.8,217.9 			"/>
			<rect x="442.1" y="218.6" class="st7" width="28.1" height="10.5"/>
			<rect x="537.2" y="180.5" class="st7" width="50.1" height="10.5"/>
			<polygon class="st7" points="656.4,192.3 606.3,191.6 606.3,181.1 656.4,181.8 			"/>
			<polygon class="st9" points="725,195.2 675.1,194.2 675.1,183.6 725,184.6 			"/>
			<polygon class="st9" points="334.2,133.7 291.6,132.6 291.6,122.1 334.2,123.1 			"/>
			<polygon class="st7" points="334.2,52.7 291.6,48.6 291.6,38.1 334.2,42.3 			"/>
			<polygon class="st9" points="335.1,33.1 292.5,27.2 292.5,16.7 335.1,22.5 			"/>
			<polygon class="st7" points="400.9,78.2 362.5,76.6 362.5,66.1 400.9,67.7 			"/>
			<polygon class="st7" points="451,81.2 412.6,79.9 412.6,69.3 451,70.6 			"/>
			<rect x="463" y="70.6" class="st5" width="59" height="10.5"/>
			<polygon class="st7" points="470.3,99.3 411.3,97.9 411.3,87.4 470.3,88.8 			"/>
			<rect x="492" y="89.7" class="st5" width="73" height="10.5"/>
			<rect x="492" y="108" class="st7" width="73" height="10.5"/>
			<rect x="569.5" y="107.3" class="st7" width="73" height="10.5"/>
			<rect x="574.4" y="89.2" class="st7" width="20.3" height="10.5"/>
		</g>
	</g>
	<g>
		<path class="st13" d="M272.7,185.1c-2.1,0-3.8-1.8-3.8-3.9v-44c0-2.1,1.7-3.9,3.8-3.9l109.5-0.7c2.1,0,3.8,1.8,3.8,3.9v40.1
			c0,2.1-1.6,3.8-3.6,3.9L272.7,185.1L272.7,185.1z"/>
		<path class="st4" d="M382.2,133.7l-109.5,0.7c-1.5,0-2.8,1.3-2.8,2.9v44c0,1.6,1.3,3,2.9,2.9l109.5-4.6c1.5-0.1,2.7-1.3,2.7-2.9
			v-40.1C385,135,383.7,133.7,382.2,133.7z"/>
		<path class="st6" d="M385,143v-6.5c0-1.6-1.3-2.9-2.8-2.9l-109.5,0.7c-1.5,0-2.8,1.3-2.8,2.9v6.4L385,143z"/>
		<circle class="st5" cx="275.2" cy="139.4" r="1.9"/>
		<circle class="st5" cx="282.3" cy="139.1" r="1.9"/>
		<circle class="st5" cx="289.4" cy="139.1" r="2.1"/>
	</g>
	<g>
		<path class="st13" d="M372.9,150.8c-4.1,0-7.5-3.3-7.5-7.5v-35.2c0-4.1,3.3-7.5,7.5-7.5h115.3c4.1,0,7.5,3.3,7.5,7.5v35.2
			c0,4.1-3.3,7.5-7.5,7.5H372.9z"/>
		<path class="st4" d="M372.9,149.8h115.3c3.6,0,6.5-2.9,6.5-6.5v-35.2c0-3.6-2.9-6.5-6.5-6.5H372.9c-3.6,0-6.5,2.9-6.5,6.5v35.2
			C366.5,146.9,369.4,149.8,372.9,149.8z"/>
		<path class="st6" d="M494.7,109.7v-3.6c0-2.5-2-4.4-4.4-4.4H370.9c-2.5,0-4.4,2-4.4,4.4v3.6H494.7z"/>
		<g>
			<path class="st13" d="M503.3,79c-4.4,0-7.9-3.6-7.9-7.9V19c0-4.3,3.5-7.8,7.7-7.9l166.6-4c4.4,0,7.9,3.6,7.9,7.9v54.3
				c0,4.3-3.5,7.9-7.8,7.9L503.3,79z"/>
			<path class="st4" d="M669.8,75.8l-166.5,1.8c-3.6,0-6.6-2.9-6.6-6.5V19c0-3.5,2.8-6.4,6.4-6.5l166.5-4c3.7-0.1,6.7,2.9,6.7,6.5
				v54.3C676.3,72.8,673.4,75.8,669.8,75.8z"/>
			<path class="st6" d="M676.3,21.4v-6.3c0-3.7-3-6.6-6.7-6.5l-166.5,4c-3.5,0.1-6.4,3-6.4,6.5v6.1L676.3,21.4z"/>
			<circle class="st8" cx="506.3" cy="19.5" r="2.3"/>
			<circle class="st9" cx="516.5" cy="19.2" r="2.3"/>
			<circle class="st10" cx="526.9" cy="18.5" r="2.3"/>
			<g>
				<rect x="506.7" y="33.1" class="st7" width="4.4" height="4.4"/>
				<rect x="506.7" y="40.9" class="st7" width="4.4" height="4.4"/>
				<rect x="506.7" y="48.7" class="st7" width="4.4" height="4.4"/>
				<rect x="506.7" y="56" class="st7" width="4.4" height="4.4"/>
				<rect x="506.7" y="63.9" class="st7" width="4.4" height="4.4"/>
				<line class="st15" x1="623" y1="46.9" x2="667.3" y2="45.3"/>
				<line class="st15" x1="591.1" y1="48" x2="615.1" y2="47.2"/>
				<line class="st15" x1="569.6" y1="48.8" x2="584.7" y2="48.3"/>
				<line class="st15" x1="547.6" y1="49.6" x2="562.4" y2="49"/>
				<line class="st15" x1="534.9" y1="50" x2="540.6" y2="49.8"/>
				<line class="st15" x1="638.8" y1="54.5" x2="645.7" y2="54.3"/>
				<line class="st15" x1="603.8" y1="55.5" x2="632.7" y2="54.7"/>
				<line class="st15" x1="562.6" y1="56.7" x2="591.7" y2="55.9"/>
				<line class="st15" x1="534.9" y1="57.5" x2="551.5" y2="57"/>
				<line class="st15" x1="636.9" y1="62.3" x2="656.6" y2="61.8"/>
				<line class="st15" x1="599.4" y1="63.3" x2="632.7" y2="62.4"/>
				<line class="st15" x1="584" y1="63.7" x2="594" y2="63.5"/>
				<line class="st15" x1="566.4" y1="64.2" x2="578.7" y2="63.9"/>
				<line class="st15" x1="551.5" y1="64.6" x2="561.9" y2="64.3"/>
				<line class="st15" x1="534.9" y1="65" x2="545.9" y2="64.7"/>
				<line class="st15" x1="516.9" y1="34.8" x2="534.9" y2="34.8"/>
				<line class="st15" x1="517.4" y1="43.1" x2="534.9" y2="42.4"/>
			</g>
			<g>
				
					<rect x="374.6" y="113.1" transform="matrix(3.347713e-02 -0.9994 0.9994 3.347713e-02 248.9802 486.879)" class="st7" width="3.2" height="3.2"/>
				
					<rect x="374.4" y="118.7" transform="matrix(3.347713e-02 -0.9994 0.9994 3.347713e-02 243.1953 492.0895)" class="st7" width="3.2" height="3.2"/>
				
					<rect x="374.2" y="124.4" transform="matrix(3.347713e-02 -0.9994 0.9994 3.347713e-02 237.3073 497.3932)" class="st7" width="3.2" height="3.2"/>
				
					<rect x="374" y="129.7" transform="matrix(3.347713e-02 -0.9994 0.9994 3.347713e-02 231.8215 502.3126)" class="st7" width="3.2" height="3.2"/>
				
					<rect x="373.8" y="135.3" transform="matrix(3.347713e-02 -0.9994 0.9994 3.347713e-02 226.0366 507.523)" class="st7" width="3.2" height="3.2"/>
				<line class="st15" x1="458" y1="125.8" x2="489.9" y2="125.7"/>
				<line class="st15" x1="435" y1="125.8" x2="452.3" y2="125.8"/>
				<line class="st15" x1="419.5" y1="125.9" x2="430.5" y2="125.8"/>
				<line class="st15" x1="403.7" y1="125.9" x2="414.4" y2="125.9"/>
				<line class="st15" x1="394.6" y1="125.9" x2="398.7" y2="125.9"/>
				<line class="st15" x1="469.2" y1="131.7" x2="474.2" y2="131.7"/>
				<line class="st15" x1="444" y1="131.6" x2="464.8" y2="131.7"/>
				<line class="st15" x1="414.4" y1="131.5" x2="435.3" y2="131.5"/>
				<line class="st15" x1="394.4" y1="131.4" x2="406.3" y2="131.4"/>
				<line class="st15" x1="467.6" y1="137.3" x2="481.8" y2="137.4"/>
				<line class="st15" x1="440.7" y1="137.1" x2="464.6" y2="137.3"/>
				<line class="st15" x1="429.5" y1="137" x2="436.8" y2="137.1"/>
				<line class="st15" x1="416.9" y1="136.9" x2="425.8" y2="137"/>
				<line class="st15" x1="406.2" y1="136.8" x2="413.7" y2="136.9"/>
				<line class="st15" x1="394.2" y1="136.8" x2="402.1" y2="136.8"/>
				<line class="st15" x1="382" y1="114.5" x2="395" y2="114.9"/>
				<line class="st15" x1="382.1" y1="120.5" x2="394.8" y2="120.4"/>
			</g>
			<g>
				<g>
					<g>
						<polygon class="st4" points="591.9,53.7 591.9,52.4 590.5,52.4 590.5,45.6 591.9,45.6 591.9,44.2 598.8,44.2 598.8,45.6 
							600.1,45.6 600.1,52.4 598.8,52.4 598.8,53.7 						"/>
						<polygon class="st4" points="596,47 594.6,47 594.6,48.4 593.3,48.4 593.3,49.7 594.6,49.7 594.6,50.9 596,50.9 596,49.7 
							597.3,49.7 597.3,48.4 596,48.4 						"/>
						<polygon class="st4" points="587,53.7 587,52.4 585.6,52.4 585.6,45.6 587,45.6 587,44.2 593.9,44.2 593.9,45.6 595.2,45.6 
							595.2,52.4 593.9,52.4 593.9,53.7 						"/>
						<polygon class="st4" points="591.1,47 589.7,47 589.7,48.4 588.4,48.4 588.4,49.7 589.7,49.7 589.7,50.9 591.1,50.9 
							591.1,49.7 592.4,49.7 592.4,48.4 591.1,48.4 						"/>
						<path class="st4" d="M580.6,74.3c-1.6,0-3.2-0.5-4.7-1.4c-1.1-0.7-5.2-3-8.7-5c-1.6-0.9-3.1-1.8-4.2-2.4l-1.7,1l-2.8-5.1
							l-0.1-0.2l-2.5-4.5l1.5-0.9v-15c0-3.3,1.6-6.1,4.5-7.8c0.7-0.4,13.5-7.8,14-8.1c1.5-0.9,3.1-1.3,4.7-1.3
							c1.6,0,3.1,0.4,4.6,1.3c2.1,1.2,11,6.3,13,7.5l1.7-1l5.4,9.7l-1.5,0.9c0,2.6,0,9.5,0,9.5v2.8v1.5l1.4,0.8l-2.1,3.9
							c-0.1,0.3-0.3,0.6-0.4,0.9l-2.7,5l-1.7-1c-1.5,0.8-11.9,6.8-13,7.5C583.8,73.9,582.2,74.3,580.6,74.3z"/>
						<path class="st4" d="M601,57.5c0-0.1,0-0.2,0-0.3v-2.8l0,0c0-3.7,0-10.2,0-13.5c0-0.1,0-0.3,0-0.4l0.6-0.3l-1.3-2.4l0,0l0,0
							l-1.4-2.5l-0.6,0.4c-0.1-0.1-0.2-0.1-0.3-0.2c-2.4-1.4-4.8-2.7-7.1-4.1c-2.3-1.3-4.6-2.7-6.9-4c-1-0.6-2.1-0.9-3.2-0.9
							s-2.2,0.3-3.3,0.9c-0.9,0.5-12.6,7.2-14,8.1c-2,1.2-3.1,3.1-3.1,5.4v16.2c0,0.1,0,0.2,0,0.3l-0.6,0.3l1.2,2.2
							c0,0.1,0.1,0.1,0.1,0.2l1.4,2.5l0.6-0.4c0.1,0.1,0.2,0.1,0.3,0.2c1.1,0.6,3,1.7,5.2,3c3.6,2,7.6,4.4,8.8,5.1
							c1.1,0.6,2.2,1,3.3,1c1.1,0,2.2-0.3,3.2-0.9c2.3-1.3,11.7-6.7,14.1-8.1c0.1-0.1,0.2-0.1,0.3-0.2l0.7,0.4l1.4-2.5
							c0.1-0.2,0.2-0.5,0.3-0.7l0.9-1.7L601,57.5z"/>
						<path class="st4" d="M580.6,63.4c-5.2,0-10-2.8-12.5-7.3c-1.2-2.2-1.9-4.7-1.9-7.2c0-8,6.5-14.5,14.5-14.5
							c5.2,0,10,2.8,12.5,7.2l1.4,2.4l-8.3,4.8l8.3,4.8l-1.4,2.5C590.6,60.6,585.8,63.4,580.6,63.4z M580.6,46
							c-1.7,0-3.1,1.4-3.1,3.1c0,0.5,0.1,1,0.4,1.5c0.5,0.9,1.5,1.5,2.6,1.5c1.1,0,2.1-0.6,2.7-1.6L584,49l-0.9-1.5
							C582.7,46.6,581.7,46,580.6,46z"/>
						<path class="st4" d="M585.7,51.8c-1,1.8-2.9,3-5.1,3c-2.2,0-4-1.2-5.1-2.9c-0.5-0.8-0.8-1.8-0.8-2.9c0-3.2,2.6-5.8,5.8-5.8
							c2.1,0,4,1.2,5,2.9l5.1-2.9c-2-3.5-5.8-5.8-10.1-5.8c-6.4,0-11.7,5.2-11.7,11.7c0,2.1,0.6,4.1,1.5,5.8c2,3.5,5.8,5.9,10.1,5.9
							c4.4,0,8.2-2.4,10.2-5.9L585.7,51.8z"/>
					</g>
					<g>
						<path class="st16" d="M580.7,43.2c-3.2,0-5.8,2.6-5.8,5.8c0,1.1,0.3,2,0.8,2.9l10.1-5.8C584.7,44.4,582.8,43.2,580.7,43.2z"/>
						<path class="st16" d="M569,49.1c0-6.4,5.2-11.7,11.7-11.7c4.3,0,8.1,2.3,10.1,5.8l7-4c-0.3-0.5-0.7-0.9-1.3-1.2
							c-4.7-2.7-9.4-5.4-14.1-8.1c-1.3-0.7-2.5-0.7-3.7,0c-1.9,1.1-11.2,6.4-14,8.1c-1.1,0.7-1.7,1.7-1.7,3c0,5.4,0,10.9,0,16.3
							c0,0.6,0.1,1.2,0.4,1.7l7-4C569.5,53.1,569,51.1,569,49.1z"/>
					</g>
					<g>
						<path class="st17" d="M575.6,51.8c1,1.8,2.9,2.9,5.1,2.9s4.1-1.2,5.1-3l-5-2.9L575.6,51.8z"/>
						<path class="st17" d="M580.7,60.6c-4.3,0-8.1-2.4-10.1-5.9l-7.1,4c0.3,0.5,0.7,0.9,1.3,1.3c2.8,1.6,12.1,7,14,8.1
							c1.3,0.8,2.5,0.8,3.7,0c4.7-2.7,9.4-5.4,14.1-8.1c0.6-0.3,1-0.8,1.3-1.3l-7-4.1C588.8,58.3,585,60.6,580.7,60.6z"/>
					</g>
					<path class="st14" d="M598.3,40.9c0-0.7-0.1-1.3-0.4-1.8L580.8,49l17.1,9.9c0.3-0.5,0.4-1.1,0.4-1.7
						C598.3,57.1,598.3,46.3,598.3,40.9z M592.4,49.7h-1.3v1.3h-1.3v-1.3h-1.3v-1.3h1.3v-1.3h1.3v1.3h1.3V49.7z M597.3,49.7H596v1.3
						h-1.3v-1.3h-1.3v-1.3h1.3v-1.3h1.3v1.3h1.3V49.7z"/>
				</g>
			</g>
		</g>
	</g>
	<g>
		<path class="st13" d="M222.9,102.2c-2.2,0-4-2-4-4.4V46.3c0-2.4,1.8-4.4,4.1-4.4h0.2l122.4,10.9c2.2,0.1,3.9,2,3.9,4.4v47
			c0,2.4-1.8,4.4-4.1,4.4L222.9,102.2z"/>
		<path class="st4" d="M345.3,107.5l-122.3-6.3c-1.7,0-3.1-1.5-3.1-3.4V46.3c0-1.9,1.5-3.5,3.2-3.4l122.3,10.9c1.7,0.1,3,1.6,3,3.4
			v47C348.5,106,347.1,107.5,345.3,107.5z"/>
		<path class="st6" d="M220.1,53l128.3,10.9v-6.8c0-1.8-1.3-3.3-3-3.4L223,42.9c-1.8-0.1-3.2,1.5-3.2,3.4V53
			C219.9,53,220,53,220.1,53z"/>
		<circle class="st8" cx="226.1" cy="48" r="2.2"/>
		<circle class="st9" cx="234.3" cy="48.5" r="2.2"/>
		<circle class="st10" cx="242.7" cy="49.3" r="2.5"/>
		<g>
			<line class="st15" x1="233.7" y1="60" x2="249.3" y2="61.5"/>
			<line class="st15" x1="233.7" y1="68.2" x2="249.3" y2="69.8"/>
			<line class="st15" x1="226.1" y1="59.2" x2="230" y2="59.6"/>
			<line class="st15" x1="226.1" y1="67.2" x2="230" y2="67.6"/>
			<line class="st15" x1="226.1" y1="75.9" x2="230" y2="76.3"/>
			<line class="st15" x1="226.1" y1="83.9" x2="230" y2="84.3"/>
			<line class="st15" x1="226.1" y1="92.7" x2="230" y2="93.1"/>
			<line class="st15" x1="323.3" y1="83.1" x2="343.9" y2="84.7"/>
			<line class="st15" x1="297.6" y1="81.1" x2="318.3" y2="82.7"/>
			<line class="st15" x1="279.3" y1="79.7" x2="292.7" y2="80.7"/>
			<line class="st15" x1="260.3" y1="78.2" x2="273.9" y2="79.3"/>
			<line class="st15" x1="250.4" y1="77.5" x2="254.6" y2="77.8"/>
			<line class="st15" x1="308.3" y1="89.5" x2="343.9" y2="91.7"/>
			<line class="st15" x1="273.5" y1="87.4" x2="299" y2="89"/>
			<line class="st15" x1="250.4" y1="86" x2="264.6" y2="86.9"/>
			<line class="st15" x1="305.5" y1="97" x2="343.9" y2="99"/>
			<line class="st15" x1="291.4" y1="96.3" x2="299.8" y2="96.7"/>
			<line class="st15" x1="277.4" y1="95.6" x2="286" y2="96"/>
			<line class="st15" x1="263.5" y1="94.9" x2="272.9" y2="95.3"/>
			<line class="st15" x1="250.4" y1="94.2" x2="258.8" y2="94.6"/>
		</g>
	</g>
	<g>
		<path class="st13" d="M313.3,123.1c-2.1,0-3.9-1.8-3.9-3.9v-44c0-2.2,1.7-3.9,3.9-3.9l114.3,4.6c2.1,0.1,3.7,1.8,3.7,3.9v40.1
			c0,2.2-1.8,3.9-3.9,3.9L313.3,123.1z"/>
		<path class="st4" d="M427.4,122.8l-114.1-0.7c-1.6,0-2.9-1.3-2.9-2.9v-44c0-1.6,1.4-3,3-2.9l114.2,4.6c1.6,0.1,2.8,1.3,2.8,2.9
			v40.1C430.3,121.5,429,122.8,427.4,122.8z"/>
		<path class="st6" d="M310.6,80.9l119.7,4.6v-5.7c0-1.6-1.2-2.8-2.8-2.9l-114.1-4.6c-1.6-0.1-3,1.3-3,2.9V81
			C310.5,80.9,310.5,80.9,310.6,80.9z"/>
		<circle class="st5" cx="315.7" cy="76.6" r="1.9"/>
		<circle class="st5" cx="322.8" cy="77" r="1.9"/>
		<circle class="st5" cx="329.9" cy="77.7" r="2.1"/>
	</g>
	<g>
		<path class="st13" d="M702.9,64c-1.9,0-3.5-1.6-3.5-3.5v-35c0-1.9,1.5-3.4,3.3-3.5L802,5.9h0.2c1.9,0,3.5,1.6,3.5,3.5V52
			c0,1.9-1.6,3.5-3.5,3.5L702.9,64L702.9,64z"/>
		<path class="st4" d="M702.9,63l99.2-8.6c1.4,0,2.5-1.1,2.5-2.5V9.4c0-1.4-1.2-2.6-2.6-2.5l-99.2,16.2c-1.4,0.1-2.4,1.2-2.4,2.5v35
			C700.4,61.9,701.5,63.1,702.9,63z"/>
		<path class="st6" d="M804.5,14.4l-104,16.2v-5c0-1.4,1.1-2.5,2.4-2.5l99.2-16.3c1.4-0.1,2.6,1.1,2.6,2.5v5
			C804.6,14.4,804.6,14.4,804.5,14.4z"/>
		<circle class="st5" cx="704.5" cy="26.3" r="1.7"/>
		<circle class="st5" cx="710.7" cy="25" r="1.6"/>
		<circle class="st5" cx="716.9" cy="24.1" r="1.9"/>
	</g>
	<g>
		<path class="st13" d="M851.4,227.7c-0.2,0-0.3,0-0.5,0l-121.4-9.5c-3.2-0.3-5.7-3-5.7-6.2v-43.2c0-3.4,2.8-6.2,6.2-6.2l121.6,3.2
			c3.4,0.1,6.1,2.8,6.1,6.2v49.5c0,1.7-0.7,3.2-1.8,4.4C854.7,227,853.1,227.7,851.4,227.7L851.4,227.7z"/>
		<path class="st4" d="M851.6,166.8l-121.4-3.2c-2.9-0.1-5.4,2.3-5.4,5.2V212c0,2.7,2.1,5,4.8,5.2l121.4,9.5c3,0.2,5.6-2.2,5.6-5.2
			V172C856.7,169.2,854.4,166.9,851.6,166.8z"/>
		<path class="st6" d="M856.7,177v-5c0-2.8-2.3-5.2-5.1-5.2l-121.4-3.2c-2.9-0.1-5.4,2.3-5.4,5.2v5L856.7,177z"/>
		<circle class="st5" cx="731.6" cy="169.5" r="2.2"/>
		<circle class="st5" cx="739.5" cy="170" r="2.2"/>
		<circle class="st5" cx="747.4" cy="170.3" r="2.2"/>
	</g>
	<g>
		<path class="st13" d="M793.4,278.5c-0.3,0-0.5,0-0.8-0.1l-118.9-16.9c-2.8-0.4-4.9-2.8-4.9-5.6v-40.9c0-3.1,2.5-5.7,5.7-5.7
			c0.2,0,0.3,0,0.5,0l118.9,9.6c2.9,0.2,5.2,2.7,5.2,5.7v48.2c0,1.5-0.6,3-1.7,4C796.3,278,794.9,278.5,793.4,278.5L793.4,278.5z"/>
		<path class="st4" d="M793.8,220.1l-118.9-9.6c-2.7-0.2-5,1.9-5,4.7V256c0,2.3,1.7,4.3,4,4.6l118.9,16.9c2.8,0.4,5.3-1.8,5.3-4.6
			v-48.2C798.1,222.3,796.2,220.3,793.8,220.1z"/>
		<path class="st6" d="M798.1,229.4v-4.8c0-2.4-1.9-4.5-4.3-4.7l-118.9-9.6c-2.7-0.2-5,1.9-5,4.7v5.1L798.1,229.4z"/>
		<circle class="st5" cx="676.5" cy="215.3" r="1.9"/>
		<circle class="st5" cx="683.9" cy="216.2" r="1.9"/>
		<circle class="st5" cx="691.3" cy="217.2" r="1.9"/>
	</g>
	<g>
		<path class="st18" d="M375.2,301.8v8.2c0,0,21,0,21.8,0s1.1-2.6-0.7-3.3c-1.8-0.6-6.7-1.1-8.3-2.3c-1.7-1.2-3.8-6.7-3.8-6.7
			L375.2,301.8z"/>
		<path class="st18" d="M412.1,300v10c0,0,25.4,0,26.4,0s1.3-3.2-0.8-3.9c-2.1-0.8-8.1-1.3-10.1-2.8s-4.6-8.1-4.6-8.1L412.1,300z"/>
		<path class="st19" d="M384.2,190.6c0,0-6.9,58-8,69.8c-1.1,11.8-1,41.4-1,41.4l9-1.9c0,0,1.8-2.3,1.7-4.3c-0.1-2-1.2-3.7-0.8-6.4
			c0.4-2.7,3.3-10.1,3.4-12.9s-1-5.8,0.4-9c1.4-3.2,5.7-11.7,6.5-15.4s2.9-22.6,3.3-26.6c0.3-4.1,3-11.1,5.2-10.5
			c2.2,0.6,2.7,21.3,2.1,35.5c-0.2,10.1,2,10.5,2.2,23.8c0.2,13.3,4.1,26,4.1,26l13.2-0.9c0,0-0.3-11-0.7-12.9
			c-0.4-1.9-2.8-7.8-2.8-10.8s2.9-10.3,2.7-14.2c-0.2-3.8-1.7-11.8-1.7-15.8s5.3-33.2,7-37.3c1.7-4.2,1.9-10.6,1.9-10.6l-3.2-5.4
			l-9.4-7.8L384.2,190.6z"/>
		<path class="st20" d="M374.3,155.5c0,0,2.5,14.4,9.4,19.4c6.9,5,4-13.5,4-13.5l-4-7.1L374.3,155.5z"/>
		<path class="st8" d="M413.2,93.8c0,0,12.6,9,14.7,16.2c2.1,7.2,2.6,27.9,2.4,38.5c-7.5-0.2-12,2.6-14.9,4.8
			c-2.9,2.2-1.1,2.1-1.1,2.1l10.3,10.8l3.3,8.1l1.7,7.3l-0.8,8.2c0,0-9.5,7.2-21.5,7.2c-12,0-23.1-6.3-23.1-6.3s-1.3-28.6-0.4-39.7
			c-3.2,0.2-9.5-0.1-9.5-0.1s2.7-28,9.2-38.4c6.5-10.3,12.8-13.1,12.7-19.6S413.2,93.8,413.2,93.8z"/>
		<path class="st20" d="M414,162c0,0,11.7,12.8,12.2,17c0.6,4.2-1.1,10.4,0,13c1.1,2.6,4.3,8.6,6.5,8.2c2.2-0.4,5.1-10.5,4.3-13.8
			c-0.8-3.3-3.4-3.8-4-11s-1-20.1-1-20.1l-1.4-2.4l-7-1.5l-5.2,2.3l-4.5,5.4L414,162z"/>
		<path class="st21" d="M414,162c0,0,3.8-13.3,18-6.8c2.6-2.7,1.4-6.7,0-7.2c-1.4-0.5-13.5-3.1-21.1,6.6
			C412.3,159.2,412.5,161.4,414,162z"/>
		<path class="st20" d="M427.9,66.2c0,0,3,14.4-1.1,21.5s-7.3,7.3-13.4,5c-6.2-2.3,3-21.1,3-21.1L427.9,66.2z"/>
		<path class="st19" d="M413.2,53c10.9,0,14.7,7.1,14.7,12.9c0,5.8-2.2,8.4-8.5,9.5c-6.2,1.1,2.1,7,1.1,9.9c-1,2.9-4.3,8.5-7.4,8.5
			c-3,0-12.2,0-14.9,0s-4.3-3.8-3.4-7.3c0.9-3.5-2.3-9.2-2.1-16.9C392.9,61.9,396.8,53,413.2,53z"/>
		<path class="st21" d="M413.9,151.5c0,0-1.9-19.2-2.5-30.2c-0.2,25.5,1,31.6,1,31.6h0.8L413.9,151.5z"/>
		<path class="st21" d="M383.8,150.9c0,0,0.3-13.4,1.1-16.7c-2.1,13.9-1.9,16.7-1.9,16.7H383.8z"/>
		<path class="st21" d="M374.3,150.8c0,0-1.3,4.2,0.7,5.5c2,1.4,6.9,0.1,8.6-2c0.1-2.4,0.4-3.4,0.4-3.4S377.3,149.9,374.3,150.8z"/>
	</g>
	<g>
		<polygon class="st22" points="565.1,303.6 565.5,297.1 570.6,297.6 570.9,302.5 566.7,304.3 		"/>
		<polygon class="st22" points="582,306.6 582.3,301.3 588.4,301 587.6,306.2 582.4,307.4 		"/>
		<path class="st20" d="M550.9,145.4c0,0-5.5,9.8-5.2,11.7c0.3,1.9,14.2,15.4,17.5,16.7c3.3,1.3,6.2-5.4,6.2-5.4s-4.3,0.7-15.6-11
			c0.1-5.9,2.9-7.2,2.9-7.2s0.3-3.6,0.1-3.9C556.6,145.9,550.9,145.4,550.9,145.4z"/>
		<path class="st23" d="M565.1,303.6c0.9,0.5,5.7-1.1,6.7-2c1-0.9,7.3-1.1,9.1,0.3c1.8,1.4,0.3,2.6-7.3,4
			C566,307.3,565.3,308,565.1,303.6z"/>
		<path class="st23" d="M582,306.6c0.8,0.5,5.7-0.7,6.8-1.7c1-0.9,7.4-0.7,9.1,0.8c1.7,1.5,0.2,2.6-7.5,3.6S581.9,310.9,582,306.6z"
			/>
		<path class="st23" d="M595.7,172.5c0,0,6.2,19.2,2.4,37.9s-1.1,20.9-2.9,38.2s-4.9,31.6-4.9,41.8c0,10.2,0,11.6,0,11.6h-9.2
			c0,0,0.2-50-0.7-60.2c-1-10.2-2.5-31.8-2.4-35.9s-1.9-4.1-1.8,1.4c0.1,5.5-1.7,30-1.8,37.3s-0.7,19.3-1,28.8
			c-0.3,9.5-0.9,22.7,0,25c0.1,0.1-10.5,0-10.5,0s-0.9-34.6-1-42.8s-2.5-34.6-4.1-42.5c-1.6-7.9-1.7-31.1,5.4-40.7
			C570.4,162.9,595.7,172.5,595.7,172.5z"/>
		<path class="st20" d="M607.4,98.4c0,0,9.8-7.4,10.7-12.3c0.9-4.9,4.9-26.5,4.7-28.3c-0.2-1.8-1.8-3.8-1.7-5.3c0.1-1.5,2.2-2.2,5-2
			c2.8,0.2,3.7,1.2,3.4,2.5c-0.3,1.3-1.6,2.9-2,7.6c-0.4,4.7-2.5,30.8-4,33.4c-1.5,2.6-7.7,9.6-9.5,10.3S607.4,98.4,607.4,98.4z"/>
		<path class="st4" d="M586.6,114.6c0,0,18.6-17.2,19.1-17.4c0.4-0.2,8.9,7.3,9.5,8.7c-5,5.3-18.3,21-18.6,29.2
			c-0.3,8.2-0.8,37.4-0.8,37.4s-13,5.6-32.5,0c0.4-10.2,0-22.9,0-22.9L586.6,114.6z"/>
		<path class="st4" d="M556.8,130.5l-7.5,13.6l7.5,6c0,0,5.7-6.3,5.7-6.6c0-0.3-1.1-14.7-1.1-14.7L556.8,130.5z"/>
		<path class="st20" d="M592.2,84.7c0,0,3.5,13.3-0.5,20.8c-4,7.6-16.2-3.2-16.2-3.2l-1.2-17.6H592.2z"/>
		<path class="st9" d="M576.2,72.9c11.5,0,16.8,6.7,16.8,9.8s-1.9,1.1-6.5,5.8c-4.6,4.7-9,3.6-9,3.6s-1.6,9.4,5.5,16.7
			c7.1,7.3,6.4,23.6,0.4,28.2c-6,4.6-12.4,16.2-19,15.1c-6.6-1.1-2.4-13.9-4.2-16.2c-1.8-2.3-7.1-9.6-6.2-19
			c0.8-9.4,8.5-19,7.3-25.3S563.1,72.9,576.2,72.9z"/>
	</g>
	<g>
		<path class="st24" d="M322.9,178.6c-35.3-15.1-40.6-39.7-38-77.1l0.1-0.8l0.8,0.1c1.4,0.1,2.8,0.1,4.1,0.1
			c20.6,0,32.6-11.3,32.7-11.4l0.6-0.6l0.6,0.6c0.1,0.1,12,11.4,32.7,11.4l0,0c1.4,0,2.8,0,4.1-0.1l0.8-0.1l0.1,0.8
			c2.7,37.4-2.7,62-38,77.1l-0.3,0.1L322.9,178.6z"/>
		<path class="st4" d="M360.6,101.5c-23.8,1.7-37.4-11.5-37.4-11.5s-13.6,13.1-37.4,11.5c-2.6,36.5,2.1,61.1,37.4,76.3
			C358.5,162.7,363.2,138.1,360.6,101.5z"/>
		<path class="st24" d="M323.3,171.1c-13.9-6.4-22.7-14.7-27.3-25.8c-3.8-9.2-5.2-20.6-4.4-37.6c15.3-0.4,26.1-6.1,31.7-10
			c5.6,3.8,16.4,9.6,31.7,10c0.8,16.9-0.6,28.4-4.4,37.6C345.9,156.4,337.2,164.7,323.3,171.1z"/>
		<path class="st7" d="M323.3,100.7v67.7c12.8-6.1,20.7-13.7,25-24c3.5-8.4,4.9-19.1,4.3-34.3C338.9,109.3,328.8,104.3,323.3,100.7z
			"/>
		<path class="st4" d="M323.3,109.3L323.3,109.3c-6.8,0-12.3,5.5-12.3,12.3v13c0,6.8,5.5,12.3,12.3,12.3l0,0
			c6.8,0,12.3-5.5,12.3-12.3v-13C335.6,114.8,330,109.3,323.3,109.3z M331.9,134.6c0,4.8-3.9,8.7-8.7,8.7c-4.8,0-8.7-3.9-8.7-8.7
			v-13c0-4.8,3.9-8.7,8.7-8.7c4.8,0,8.7,3.9,8.7,8.7V134.6z"/>
		<path class="st9" d="M332.9,150.6h-19.2c-2.8,0-5.1-2.3-5.1-5.1v-15.6c0-2.8,2.3-5.1,5.1-5.1h19.2c2.8,0,5.1,2.3,5.1,5.1v15.6
			C338,148.3,335.7,150.6,332.9,150.6z"/>
		<path class="st25" d="M323.3,131.3c-2.4,0-4.3,1.9-4.3,4.3c0,1.7,1.1,3.2,2.5,3.9v3.6c0,1,0.8,1.7,1.7,1.7s1.7-0.8,1.7-1.7v-3.6
			c1.5-0.7,2.5-2.2,2.5-3.9C327.5,133.2,325.6,131.3,323.3,131.3z"/>
	</g>
	<g>
		<circle class="st26" cx="755.8" cy="47.3" r="14.8"/>
		<path class="st8" d="M769.3,33.8c-7.4-7.4-19.5-7.4-26.9,0s-7.4,19.5,0,26.9s19.5,7.4,26.9,0C776.7,53.2,776.7,41.2,769.3,33.8z
			 M766.3,57.6c-5.8,5.8-15.2,5.8-20.9,0c-5.8-5.8-5.8-15.2,0-20.9c5.8-5.8,15.2-5.8,20.9,0C772.1,42.6,772.1,51.8,766.3,57.6z"/>
		<g>
			<path class="st8" d="M742.3,60.6c-1.6-1.6-2.8-3.4-3.7-5.3l-12.4,12.4c-2.5,2.5-2.5,6.5,0,9c2.5,2.5,6.5,2.5,9,0l12.4-12.4
				C745.7,63.4,743.9,62.2,742.3,60.6z"/>
		</g>
		<g>
			<path class="st21" d="M742.3,60.6L742.3,60.6l-16.1,16.1c2.5,2.5,6.5,2.5,9,0l12.4-12.4C745.7,63.4,743.9,62.2,742.3,60.6z"/>
		</g>
		<g>
			<path class="st27" d="M742.3,60.6c-1.6-1.6-2.8-3.4-3.7-5.3l-1.5,1.5c0.9,1.9,2.1,3.7,3.7,5.3c1.6,1.6,3.4,2.8,5.3,3.7l1.5-1.5
				C745.7,63.4,743.9,62.2,742.3,60.6z"/>
		</g>
		<g>
			<path class="st2" d="M742.3,60.6L742.3,60.6l-1.5,1.5c1.6,1.6,3.4,2.8,5.3,3.7l1.5-1.5C745.7,63.4,743.9,62.2,742.3,60.6z"/>
		</g>
		<circle class="st28" cx="755.8" cy="47.3" r="13.1"/>
		<path class="st29" d="M749.3,40.7c2.7-2.7,6.3-4,9.7-3.8c0.5,0,0.6-0.6,0.1-0.8c-3.9-1.1-8.4-0.2-11.5,2.9s-4.1,7.5-2.9,11.5
			c0.1,0.4,0.8,0.3,0.8-0.1C745.3,47,746.5,43.4,749.3,40.7z"/>
	</g>
	<g>
		<line class="st15" x1="682.4" y1="227.5" x2="695.7" y2="228.4"/>
		<line class="st15" x1="674.9" y1="226.9" x2="678.6" y2="227.2"/>
		<line class="st15" x1="682.4" y1="233.4" x2="695.7" y2="234.4"/>
		<line class="st15" x1="674.9" y1="232.9" x2="678.6" y2="233.1"/>
		<line class="st15" x1="790.7" y1="252.5" x2="793.2" y2="252.8"/>
		<line class="st15" x1="760.8" y1="249" x2="787.1" y2="252.1"/>
		<line class="st15" x1="737.4" y1="246.2" x2="755" y2="248.3"/>
		<line class="st15" x1="721.1" y1="244.3" x2="733.1" y2="245.7"/>
		<line class="st15" x1="705.4" y1="242.5" x2="716.9" y2="243.8"/>
		<line class="st15" x1="696.2" y1="241.4" x2="700.4" y2="241.9"/>
		<line class="st15" x1="674.7" y1="238.9" x2="678.6" y2="239.3"/>
		<line class="st15" x1="678.6" y1="245.8" x2="674.7" y2="245.3"/>
		<line class="st15" x1="709.3" y1="249.4" x2="696.2" y2="247.8"/>
		<line class="st15" x1="739.2" y1="252.8" x2="716.4" y2="250.2"/>
		<line class="st15" x1="769.3" y1="256.3" x2="746.4" y2="253.6"/>
		<line class="st15" x1="778.7" y1="257.4" x2="772.9" y2="256.7"/>
		<line class="st15" x1="771.3" y1="263.6" x2="786.3" y2="265.5"/>
		<line class="st15" x1="743.5" y1="260.1" x2="768.6" y2="263.3"/>
		<line class="st15" x1="731.3" y1="258.5" x2="740.2" y2="259.7"/>
		<line class="st15" x1="719.5" y1="257.1" x2="727.9" y2="258.1"/>
		<line class="st15" x1="707.8" y1="255.6" x2="716.2" y2="256.6"/>
		<line class="st15" x1="696.2" y1="254.1" x2="704.4" y2="255.1"/>
		<line class="st15" x1="674.7" y1="251.4" x2="678.5" y2="251.8"/>
	</g>
</g>
<g>
	<g id="_Group_6_1_">
		<path id="_Path_4_1_" class="st30" d="M716.3,153.9c-3.1,0-5.5,2.4-5.5,5.5l0,0l0,0V297c0,3.1,2.4,5.5,5.5,5.5l0,0h213.4
			c3.1,0,5.5-2.4,5.5-5.5l0,0V159.5c0-3.1-2.4-5.5-5.5-5.5l0,0L716.3,153.9L716.3,153.9z"/>
		<path id="_Path_5_1_" class="st4" d="M698.6,309h248.8c6.5,0,11.8-5.3,11.9-11.9H686.7C686.8,303.7,692.1,309,698.6,309z"/>
		<path id="_Path_6_1_" class="st30" d="M688.6,303.5c2.2,3.4,5.9,5.5,10,5.5h248.8c4,0.1,7.9-2.1,10-5.5H688.6z"/>
		<circle id="_Path_7_1_" class="st30" cx="708.2" cy="300.1" r="1.3"/>
		<circle id="_Path_8_1_" class="st30" cx="704.6" cy="300.1" r="1.3"/>
		<circle id="_Path_9_1_" class="st30" cx="700.8" cy="300.1" r="1.3"/>
	</g>
	<g id="_Group_2-2_1_">
		<rect x="720" y="162.8" class="st6" width="205.9" height="128.3"/>
	</g>
	<rect x="720" y="162.8" class="st5" width="205.9" height="22.4"/>
	<rect x="725.5" y="191.8" class="st5" width="47" height="43.7"/>
	<rect x="779.3" y="201.4" class="st5" width="140" height="33.9"/>
	<rect x="779.3" y="191.9" class="st5" width="140" height="7.6"/>
	<rect x="779.3" y="240.7" class="st5" width="140" height="43.7"/>
	<rect x="725.5" y="240.7" class="st5" width="47" height="43.7"/>
	<circle class="st11" cx="729.8" cy="169.3" r="2.3"/>
	<circle class="st11" cx="738.2" cy="169.3" r="2.3"/>
	<circle class="st11" cx="746.4" cy="169.3" r="2.3"/>
	<rect x="729.3" y="245.9" class="st4" width="28.2" height="3.9"/>
	<rect x="759.5" y="245.9" class="st4" width="9.4" height="3.9"/>
	<rect x="729.3" y="252.1" class="st4" width="20.1" height="3.9"/>
	<rect x="751.6" y="252.3" class="st4" width="17.7" height="3.9"/>
	<rect x="729.3" y="258.4" class="st4" width="26.7" height="3.9"/>
	<rect x="758.1" y="258.4" class="st4" width="7.5" height="3.9"/>
	<rect x="729.3" y="264.7" class="st4" width="34.6" height="3.9"/>
	<rect x="729.3" y="271.1" class="st4" width="20" height="3.9"/>
	<rect x="751.1" y="271.1" class="st4" width="12.7" height="3.9"/>
	<rect x="729.3" y="277.3" class="st4" width="34.6" height="3.9"/>
	<circle class="st4" cx="747.8" cy="213.5" r="17.7"/>
	<circle class="st8" cx="747.8" cy="206.5" r="5.7"/>
	<path class="st8" d="M748,226c4.7-0.1,8.9-2.8,11-6.9c-2.3-3.2-6.1-5.2-10.1-5.1l-2.4,0.1c-4,0.1-7.8,2.1-9.9,5.5
		C738.9,223.8,743.2,226.2,748,226z"/>
	<rect x="784.5" y="245.3" class="st31" width="88.8" height="3.9"/>
	<rect x="879.8" y="245.3" class="st31" width="29.8" height="3.9"/>
	<rect x="784.5" y="251.5" class="st31" width="63.7" height="3.9"/>
	<rect x="854.7" y="251.6" class="st31" width="55.9" height="3.9"/>
	<rect x="784.5" y="257.7" class="st31" width="84.4" height="3.9"/>
	<rect x="875.2" y="257.7" class="st31" width="23.9" height="3.9"/>
	<rect x="784.5" y="264.1" class="st31" width="108.8" height="3.9"/>
	<rect x="784.5" y="270.5" class="st31" width="62.9" height="3.9"/>
	<rect x="853.4" y="270.5" class="st31" width="40" height="3.9"/>
	<rect x="784.5" y="276.7" class="st31" width="108.8" height="3.9"/>
	<rect x="787" y="205.9" class="st4" width="24.7" height="24.7"/>
	<rect x="820" y="205.9" class="st6" width="24.7" height="24.7"/>
	<rect x="852.9" y="205.9" class="st4" width="24.7" height="24.7"/>
	<rect x="885.8" y="205.9" class="st6" width="24.7" height="24.7"/>
	<rect x="720" y="175.6" class="st6" width="205.9" height="9.7"/>
	<g>
		<path class="st4" d="M769.8,185.2h-45.9v-5.4c0-1.6,1.3-2.8,2.8-2.8h43.1L769.8,185.2L769.8,185.2z"/>
		<rect x="728.1" y="178.9" class="st11" width="3.1" height="3.1"/>
		<rect x="734.5" y="179.2" class="st5" width="31" height="2.3"/>
		<path class="st4" d="M815.2,183.8h-43.1v-3.9c0-1.6,1.3-2.8,2.8-2.8H818v3.9C818,182.5,816.8,183.8,815.2,183.8z"/>
		<rect x="776.3" y="178.9" class="st11" width="3.1" height="3.1"/>
		<rect x="782.7" y="179.2" class="st5" width="31" height="2.3"/>
		<path class="st4" d="M863.4,183.8h-43.1v-3.9c0-1.6,1.3-2.8,2.8-2.8h43.1v3.9C866.2,182.5,864.9,183.8,863.4,183.8z"/>
		<rect x="824.4" y="178.9" class="st11" width="3.1" height="3.1"/>
		<rect x="830.7" y="179.2" class="st5" width="31" height="2.3"/>
	</g>
</g>
<g>
	<path class="st13" d="M853.3,173l-190.8-6c-5.2-0.2-9.3-4.4-9.3-9.6V96.2c0-5.1,4-9.3,9.1-9.6l190.8-10.1c0.2,0,0.3,0,0.5,0
		c5.3,0,9.6,4.3,9.6,9.6v77.3c0,2.6-1,5-2.8,6.8s-4.2,2.8-6.8,2.8C853.6,173,853.3,173,853.3,173z"/>
	<path class="st4" d="M853.1,77.5L662.4,87.6c-4.6,0.2-8.1,4-8.1,8.6v61.3c0,4.6,3.7,8.4,8.3,8.6l190.8,6c4.9,0.2,8.9-3.7,8.9-8.6
		V86.1C862.2,81.2,858,77.3,853.1,77.5z"/>
	<path class="st6" d="M862.2,93.4v-7.3c0-4.9-4.1-8.8-9.1-8.6L662.4,87.6c-4.6,0.2-8.1,4-8.1,8.6v7L862.2,93.4z"/>
	<circle class="st8" cx="664.9" cy="95.2" r="3.5"/>
	<circle class="st9" cx="677" cy="94.5" r="3.5"/>
	<circle class="st10" cx="689.3" cy="93.6" r="3.5"/>
	<g>
		<line class="st32" x1="665.9" y1="114.3" x2="668.8" y2="114.3"/>
		<line class="st32" x1="665.9" y1="123.8" x2="668.8" y2="123.8"/>
		<line class="st32" x1="665.9" y1="133.3" x2="668.8" y2="133.3"/>
		<line class="st32" x1="665.9" y1="142.8" x2="668.8" y2="142.8"/>
		<line class="st32" x1="665.9" y1="152.3" x2="668.8" y2="152.3"/>
		<line class="st32" x1="677.1" y1="114.3" x2="698.1" y2="113.5"/>
		<line class="st32" x1="677.1" y1="123.8" x2="698.1" y2="123.4"/>
		<line class="st32" x1="802.7" y1="131.9" x2="855.7" y2="131.2"/>
		<line class="st32" x1="765.3" y1="132.4" x2="794.3" y2="132"/>
		<line class="st32" x1="739.8" y1="132.8" x2="757.6" y2="132.5"/>
		<line class="st32" x1="714" y1="133.1" x2="731.8" y2="132.9"/>
		<line class="st32" x1="698.9" y1="133.3" x2="705.1" y2="133.2"/>
		<line class="st32" x1="821.4" y1="142.5" x2="831" y2="142.5"/>
		<line class="st32" x1="779.8" y1="142.7" x2="816.3" y2="142.5"/>
		<line class="st32" x1="731.6" y1="142.8" x2="767.3" y2="142.7"/>
		<line class="st32" x1="698.9" y1="142.9" x2="719.3" y2="142.9"/>
		<line class="st32" x1="818.5" y1="153.5" x2="843.9" y2="153.8"/>
		<line class="st32" x1="775.3" y1="153.1" x2="816" y2="153.5"/>
		<line class="st32" x1="755.7" y1="152.9" x2="768.9" y2="153"/>
		<line class="st32" x1="736.8" y1="152.7" x2="749.9" y2="152.8"/>
		<line class="st32" x1="717.3" y1="152.5" x2="731.3" y2="152.6"/>
		<line class="st32" x1="698.9" y1="152.3" x2="711.9" y2="152.5"/>
	</g>
	
		<rect x="717" y="109.1" transform="matrix(0.9996 -2.719753e-02 2.719753e-02 0.9996 -3.3477 20.5913)" class="st4" width="76.7" height="48.5"/>
	<g>
		<path class="st33" d="M787.9,115.8L787.9,115.8c0.2-0.1,0.4-0.1,0.5-0.3c0.1-0.1,0.2-0.3,0.2-0.4c0-0.2-0.1-0.4-0.2-0.5
			c-0.2-0.1-0.4-0.2-0.7-0.1H787l0.1,2.4h0.4v-1.1h0.2c0.2,0,0.3,0.1,0.4,0.5l0.3,0.6h0.4l-0.3-0.7
			C788.2,115.9,788,115.8,787.9,115.8z M787.6,115.6h-0.4v-0.8h0.2c0.2,0,0.4,0,0.5,0.1c0.1,0.1,0.1,0.2,0.1,0.2
			C788.1,115.5,788,115.6,787.6,115.6z M787.7,113.9c-0.6,0-1,0.2-1.3,0.6c-0.3,0.4-0.6,0.8-0.5,1.3c0,0.6,0.2,1,0.6,1.3
			c0.4,0.4,0.8,0.5,1.3,0.5c0.6,0,1-0.2,1.3-0.6c0.3-0.4,0.6-0.8,0.5-1.3c0-0.6-0.2-1-0.6-1.3C788.6,113.9,788.2,113.9,787.7,113.9z
			 M788.9,116.9c-0.2,0.3-0.6,0.5-1.1,0.5s-0.8-0.1-1.2-0.5c-0.3-0.3-0.5-0.7-0.5-1.1c0-0.5,0.1-0.8,0.5-1.2
			c0.2-0.3,0.6-0.5,1.1-0.5s0.8,0.1,1.2,0.5c0.3,0.3,0.5,0.6,0.5,1.1C789.4,116.1,789.1,116.5,788.9,116.9z M729.6,117.4
			c0-0.8,0-1.5-0.1-1.9l0,0c0.1,0.5,0.2,0.7,0.3,1.1l3.5,7.4h0.6l3.1-7.6c0.1-0.2,0.2-0.5,0.2-1l0,0c-0.1,0.7,0,1.4,0,1.9l0.2,6.5
			h1.2l-0.3-9.8h-1.4l-2.9,7c-0.1,0.3-0.2,0.7-0.5,1.3h-0.1c-0.1-0.2-0.2-0.7-0.5-1.1l-3.2-6.8h-1.4l0.3,9.6h1.2L729.6,117.4
			C729.4,117.4,729.6,117.4,729.6,117.4z M741.5,114.7c0.2,0,0.4-0.1,0.6-0.2c0.2-0.1,0.2-0.3,0.2-0.5s-0.1-0.4-0.2-0.5
			c-0.1-0.1-0.3-0.2-0.6-0.1c-0.2,0-0.4,0.1-0.5,0.2c-0.1,0.1-0.2,0.3-0.2,0.5s0.1,0.4,0.2,0.6C741.2,114.7,741.4,114.7,741.5,114.7
			z M741.2,123.6h1.2l-0.2-7H741L741.2,123.6z M747.4,123.7c0.7,0,1.4-0.2,1.9-0.5v-1.1c-0.6,0.4-1.1,0.6-1.7,0.6
			c-0.7,0-1.3-0.1-1.8-0.6s-0.7-1.1-0.7-1.9c0-0.8,0.2-1.5,0.6-2c0.5-0.5,1.1-0.8,1.7-0.8c0.6,0,1.2,0.1,1.8,0.5v-1.2
			c-0.5-0.2-1.1-0.4-1.7-0.4c-1.2,0-2,0.5-2.6,1.1c-0.6,0.6-0.9,1.7-0.9,2.8s0.3,1.9,1.1,2.5C745.6,123.3,746.3,123.7,747.4,123.7z
			 M752.8,116.6c-0.4,0.3-0.6,0.7-0.7,1.2l0,0v-1.4h-1.2l0.2,7h1.2l-0.1-3.6c0-0.8,0.1-1.4,0.5-1.9c0.2-0.4,0.6-0.6,1.1-0.6
			c0.4,0,0.7,0.1,0.8,0.1v-1.2c-0.2-0.1-0.4-0.1-0.7-0.1C753.4,116.1,753.1,116.2,752.8,116.6z M758.7,123.4c1.1,0,1.9-0.5,2.5-1.1
			c0.6-0.7,0.9-1.7,0.9-2.7c0-1.2-0.3-2-0.9-2.6c-0.6-0.6-1.4-1-2.5-0.9c-1.1,0.1-1.9,0.3-2.5,1.1c-0.6,0.7-1,1.7-1,2.9
			c0,1.1,0.3,1.9,1.1,2.5C756.8,123,757.6,123.4,758.7,123.4z M756.9,117.7c0.4-0.5,1-0.7,1.7-0.7s1.2,0.1,1.7,0.6s0.6,1.1,0.6,2.1
			c0,0.8-0.1,1.5-0.5,2c-0.4,0.5-1,0.8-1.7,0.8s-1.2-0.1-1.8-0.6c-0.4-0.5-0.7-1.1-0.7-2C756.2,118.9,756.4,118.2,756.9,117.7z
			 M767,122.5c0.5-0.4,0.6-0.8,0.6-1.4c0-0.5-0.2-1-0.5-1.3c-0.3-0.2-0.7-0.6-1.3-0.7c-0.6-0.1-0.8-0.4-1.1-0.6
			c-0.2-0.2-0.3-0.4-0.3-0.7c0-0.2,0.1-0.6,0.4-0.7c0.2-0.2,0.5-0.3,0.8-0.3c0.6,0,1.2,0.1,1.7,0.5v-1.2c-0.5-0.2-1-0.2-1.5-0.2
			c-0.7,0-1.3,0.2-1.8,0.6c-0.5,0.4-0.6,0.8-0.6,1.4c0,0.5,0.2,1,0.5,1.2s0.7,0.6,1.3,0.7c0.6,0.2,1,0.5,1.2,0.6
			c0.2,0.2,0.3,0.4,0.3,0.7c0,0.7-0.5,1-1.3,1c-0.7,0-1.2-0.1-1.8-0.6v1.2c0.5,0.2,1.1,0.4,1.7,0.4C766,123.2,766.6,122.9,767,122.5
			z M774.8,121.8c0.6-0.7,0.9-1.7,0.9-2.7c0-1.2-0.3-2-0.9-2.6c-0.6-0.6-1.4-1-2.5-0.9c-1.1,0-1.9,0.3-2.5,1.1c-0.6,0.7-1,1.7-1,2.9
			c0,1.1,0.3,1.9,1.1,2.5c0.6,0.6,1.4,1,2.5,1C773.3,123,774.1,122.5,774.8,121.8z M769.9,119.3c0-0.8,0.1-1.7,0.6-2.1
			c0.4-0.5,1-0.7,1.7-0.7c0.7,0,1.2,0.1,1.7,0.6c0.4,0.5,0.6,1.1,0.6,2.1c0,0.8-0.1,1.5-0.5,2c-0.4,0.5-1,0.8-1.7,0.8
			c-0.7,0-1.2-0.1-1.8-0.6C770.1,120.8,769.9,120.2,769.9,119.3z M777.7,122.6h1.2l-0.2-6.1h1.7v-1h-1.7v-0.9c0-1,0.4-1.5,1.1-1.5
			c0.2,0,0.6,0.1,0.7,0.1v-1.1c-0.2-0.1-0.5-0.1-0.8-0.1c-0.6,0-1.2,0.2-1.5,0.6c-0.5,0.5-0.7,1.1-0.7,1.8v1.2h-1.2v1h1.2
			L777.7,122.6L777.7,122.6L777.7,122.6z M782.2,120.6c0,1.4,0.6,2.1,1.9,2c0.5,0,0.7-0.1,1.1-0.2v-1c-0.2,0.2-0.5,0.2-0.7,0.2
			c-0.4,0-0.7-0.1-0.8-0.2c-0.2-0.2-0.3-0.6-0.3-1.1l-0.1-4h1.8v-1h-1.8l-0.1-2.1c-0.4,0.1-0.7,0.3-1.1,0.4v1.7h-1.2v1h1.2
			L782.2,120.6L782.2,120.6L782.2,120.6z M722.9,149.6c-0.6,0-1.1,0.2-1.4,0.6c-0.4,0.4-0.6,0.8-0.5,1.4c0,0.6,0.2,1.1,0.6,1.4
			c0.4,0.4,0.8,0.6,1.4,0.5c0.6,0,1.1-0.2,1.4-0.6c0.4-0.4,0.6-0.8,0.5-1.4c0-0.6-0.2-1.1-0.6-1.4
			C724,149.7,723.5,149.6,722.9,149.6z M747.1,144.9c0,1.8,0.2,3.1,0.3,3.8h-0.1c-0.2-0.4-0.6-1-1.1-1.7l-13.5-19.9l-3.9,0.1
			l0.7,25.8l3.1-0.1l-0.5-18.7c0-1.8-0.2-3-0.3-3.6h0.1c0.2,0.6,0.5,1.1,0.8,1.6l13.9,20.2l3.7-0.1l-0.7-25.7l-3.1,0.1L747.1,144.9
			L747.1,144.9L747.1,144.9z M758.7,140.5l9.4-0.3l-0.1-2.7l-9.4,0.3l-0.2-8.6l10.1-0.3l-0.1-2.7l-13.1,0.4l0.7,25.8l13.7-0.4
			l-0.1-2.7l-10.7,0.3L758.7,140.5L758.7,140.5z M772,128.8l7.5-0.2l0.6,23l3.1-0.1l-0.6-23l7.5-0.2l-0.1-2.7l-17.9,0.5L772,128.8
			L772,128.8z"/>
	</g>
</g>
<g>
	<g>
		<path class="st34" d="M923.9,84.5l-2.9-6.1l-3.6,0.8c-0.6-0.7-1.3-1.4-2-2.1l1.5-3.4l-5.6-3.9l-3.1,2.7c-0.9-0.3-1.6-0.6-2.5-0.8
			l-0.4-4l-6.7-0.6l-1.3,4.1c-0.8,0.1-1.6,0.3-2.3,0.5l-2.6-3.5l-6.1,2.9l1,4.2c-0.6,0.5-1.2,0.9-1.7,1.5l-3.9-1.7l-3.9,5.6l2.9,3.1
			c-0.3,0.8-0.6,1.5-0.9,2.3l-4.1,0.5l-0.6,6.7l3.8,1.2c0.1,0.9,0.2,1.7,0.4,2.7l-3.1,2.2l2.9,6.1l3.5-0.9c0.6,0.8,1.2,1.6,2,2.4
			l-1.3,3l5.6,3.9l2.4-2.2c1,0.5,2.1,0.9,3.1,1.2l0.4,3l6.7,0.6l0.9-2.8c1.2-0.1,2.4-0.4,3.6-0.6l1.7,2.2l6.1-2.9l-0.7-2.8
			c1-0.7,1.9-1.6,2.7-2.5l2.5,1l3.9-5.6l-2-2.1c0.5-1.1,0.9-2.3,1.1-3.4l2.9-0.4l0.6-6.7l-3.2-0.9c-0.2-1-0.3-2.2-0.7-3.2
			L923.9,84.5z M908.3,98.1c-2.9,4.2-8.7,5.1-12.8,2.3c-4.1-2.8-5.1-8.7-2.3-12.8c2.9-4.2,8.7-5.1,12.8-2.3
			C910.3,88.2,911.2,94,908.3,98.1z"/>
		<path class="st35" d="M889.1,84.6c-4.5,6.5-3,15.4,3.5,19.9c6.5,4.5,15.4,3,19.9-3.5c4.5-6.5,3-15.4-3.5-19.9
			C902.5,76.6,893.6,78.1,889.1,84.6z M910,99.3c-3.6,5.1-10.6,6.3-15.6,2.8c-5.1-3.6-6.3-10.6-2.8-15.7c3.6-5.1,10.6-6.3,15.7-2.7
			C912.4,87.1,913.6,94.2,910,99.3z"/>
	</g>
	<g>
		<path class="st35" d="M944.2,33.7l-2.9-6.1l-3.6,0.8c-0.6-0.7-1.3-1.4-2-2.1l1.5-3.4l-5.6-3.9l-3,2.8c-0.9-0.3-1.6-0.6-2.5-0.8
			l-0.5-4.1l-6.8-0.6l-1.3,4.1c-0.8,0.1-1.6,0.3-2.3,0.5l-2.6-3.5l-6.2,2.8l1,4.3c-0.6,0.5-1.2,0.9-1.7,1.5l-3.9-1.7l-3.9,5.6
			l2.9,3.1c-0.3,0.8-0.6,1.5-0.9,2.3l-4.1,0.5l-0.5,6.8l3.8,1.2c0.1,0.9,0.2,1.7,0.4,2.7l-3.1,2.2l2.9,6.1l3.6-0.8
			c0.6,0.8,1.2,1.7,2,2.4l-1.3,3.1l5.6,3.9l2.4-2.2c1.1,0.5,2.1,0.9,3.2,1.3l0.4,3L922,66l0.9-2.8c1.2-0.1,2.4-0.3,3.7-0.7l1.7,2.2
			l6.1-2.9l-0.7-2.8c1-0.7,1.9-1.6,2.7-2.5l2.6,1.1l3.9-5.6l-2-2.2c0.5-1.1,0.9-2.3,1.1-3.4l2.9-0.4l0.6-6.8l-3.2-1
			c-0.2-1-0.3-2.2-0.7-3.2L944.2,33.7z M930,48.5c-3.6,5.1-10.7,6.4-15.9,2.8c-5.1-3.6-6.4-10.8-2.8-15.9c3.6-5.1,10.8-6.4,15.9-2.8
			C932.5,36.3,933.7,43.3,930,48.5z"/>
		<path class="st36" d="M907.3,32.5c-5.2,7.4-3.3,17.6,4.1,22.8c7.4,5.2,17.6,3.4,22.7-4s3.4-17.6-4-22.7
			C922.7,23.5,912.5,25.2,907.3,32.5z M931.4,49.4c-4.2,5.8-12.2,7.3-18,3.2c-5.8-4.2-7.3-12.2-3.2-18s12.2-7.3,18-3.2
			C934.1,35.4,935.4,43.5,931.4,49.4z"/>
	</g>
	<path class="st36" d="M893.3,53.6l-1.5-1.6l-1.7,1.1c-0.7-0.5-1.3-0.8-2-1V50l-2.2-0.2l-0.3,2c-0.7,0.1-1.5,0.3-2.1,0.6l-1.5-1.5
		l-1.6,1.5l1.1,1.7c-0.5,0.7-0.8,1.3-1,2h-2.1l-0.2,2.2l2,0.3c0.1,0.7,0.3,1.5,0.6,2.1l-1.5,1.5l1.5,1.6l1.7-1.1
		c0.7,0.5,1.3,0.8,2,1v2.1l2.2,0.2l0.3-2c0.7-0.1,1.5-0.3,2.1-0.6l1.5,1.5l1.6-1.5l-1.1-1.7c0.5-0.7,0.8-1.3,1-2h2.1l0.2-2.2l-2-0.3
		c-0.1-0.7-0.3-1.5-0.6-2.1L893.3,53.6z M888.2,60.1c-1.2,1-3.1,0.9-4.2-0.3c-1-1.2-0.9-3.1,0.3-4.2c1.2-1,3.1-0.9,4.2,0.3
		C889.7,57.2,889.5,59.1,888.2,60.1z"/>
</g>
</svg>
